<?xml version="1.0" encoding="UTF-8" standalone="no"?>
<svg
   xmlns:dc="http://purl.org/dc/elements/1.1/"
   xmlns:cc="http://creativecommons.org/ns#"
   xmlns:rdf="http://www.w3.org/1999/02/22-rdf-syntax-ns#"
   xmlns:svg="http://www.w3.org/2000/svg"
   xmlns="http://www.w3.org/2000/svg"
   xmlns:sodipodi="http://sodipodi.sourceforge.net/DTD/sodipodi-0.dtd"
   xmlns:inkscape="http://www.inkscape.org/namespaces/inkscape"
   viewBox="0 0 413.22541 62.790001"
   version="1.1"
   id="svg887"
   sodipodi:docname="logo.svg"
   width="413.2254"
   height="62.790001"
   inkscape:version="0.92.2 (5c3e80d, 2017-08-06)">
  <metadata
     id="metadata893">
    <rdf:RDF>
      <cc:Work
         rdf:about="">
        <dc:format>image/svg+xml</dc:format>
        <dc:type
           rdf:resource="http://purl.org/dc/dcmitype/StillImage" />
        <dc:title />
      </cc:Work>
    </rdf:RDF>
  </metadata>
  <defs
     id="defs891" />
  <sodipodi:namedview
     pagecolor="#ffffff"
     bordercolor="#666666"
     borderopacity="1"
     objecttolerance="10"
     gridtolerance="10"
     guidetolerance="10"
     inkscape:pageopacity="0"
     inkscape:pageshadow="2"
     inkscape:window-width="1920"
     inkscape:window-height="1017"
     id="namedview889"
     showgrid="false"
     fit-margin-top="0"
     fit-margin-left="0"
     fit-margin-right="0"
     fit-margin-bottom="0"
     inkscape:zoom="1.84375"
     inkscape:cx="73.120081"
     inkscape:cy="36.990819"
     inkscape:window-x="-8"
     inkscape:window-y="-8"
     inkscape:window-maximized="1"
     inkscape:current-layer="svg887" />
  <g
     id="g1452"
     transform="translate(0,-0.6)"
     style="fill:#ffffff">
    <path
       id="path867"
       d="m 21,61.39 c -0.1,-3 -0.15,-6.39 -0.15,-10.11 0,-0.76 0,-1.5 0.05,-2.24 a 1.31,1.31 0 0 0 -1.25,-1.37 1.32,1.32 0 0 0 -1.37,1.25 q -0.06,1.17 -0.06,2.37 c 0,3.29 0,6.27 0.1,8.87 0.86,0.44 1.76,0.84 2.68,1.23 z"
       inkscape:connector-curvature="0"
       style="fill:#ffffff" />
    <path
       id="path869"
       d="m 38.49,63 c 0,-3 0,-6.2 0,-9.79 0,-8.27 -2.5,-17.06 -7.14,-17.06 -4.64,0 -7.14,8.79 -7.14,17.06 0,3.43 0,6.53 0,9.34 0.88,0.25 1.76,0.45 2.63,0.61 0,-3 0,-6.35 0,-10 0,-8.81 2.67,-14.43 4.52,-14.43 1.85,0 4.52,5.62 4.52,14.43 q 0,5.54 0,10.23 c 0.88,-0.1 1.76,-0.25 2.61,-0.39 z"
       inkscape:connector-curvature="0"
       style="fill:#ffffff" />
    <path
       id="path871"
       d="m 44.41,61 c 0.08,-2.86 0.12,-6.14 0.12,-9.76 0,-14.23 -5.78,-25.37 -13.15,-25.37 -5,0 -9.38,5 -11.66,13.49 a 1.31,1.31 0 1 0 2.53,0.68 c 1.89,-7 5.47,-11.55 9.13,-11.55 5.09,0 10.53,9.14 10.53,22.75 0,4 -0.05,7.63 -0.16,10.79 0.91,-0.26 1.8,-0.61 2.66,-1.03 z"
       inkscape:connector-curvature="0"
       style="fill:#ffffff" />
    <path
       id="path873"
       d="m 50.26,57.67 c 0.12,-3.19 0.18,-6.84 0.18,-10.84 0,-16.6 -8.56,-30.1 -19.07,-30.1 -10.51,0 -19.07,13.49 -19.07,30.09 0,3.38 0,6.53 0.13,9.35 a 33,33 0 0 0 2.68,2.06 c -0.19,-4.62 -0.19,-9 -0.19,-11.4 0,-15.15 7.38,-27.48 16.45,-27.48 9.07,0 16.46,12.32 16.46,27.47 0,2.66 0,7.52 -0.25,12.6 a 31.78,31.78 0 0 0 2.68,-1.75 z"
       inkscape:connector-curvature="0"
       style="fill:#ffffff" />
    <path
       id="path875"
       d="m 63.4,34.29 a 1.3,1.3 0 0 0 -0.72,-0.21 h -0.27 a 1.31,1.31 0 0 0 -1,1.55 51.87,51.87 0 0 1 0.86,6 37.39,37.39 0 0 0 1.73,-6.3 v -0.21 a 1.31,1.31 0 0 0 -0.6,-0.83 z"
       inkscape:connector-curvature="0"
       style="fill:#ffffff" />
    <path
       id="path877"
       d="m 11.8,23.09 a 1.35,1.35 0 0 0 1.81,-0.4 c 4,-6.2 9.44,-10.06 15.38,-10.87 a 1.3124024,1.3124024 0 1 0 -0.36,-2.6 c -6.72,0.92 -12.84,5.2 -17.23,12.05 a 1.31,1.31 0 0 0 0.4,1.81 z"
       inkscape:connector-curvature="0"
       style="fill:#ffffff" />
    <path
       id="path879"
       d="M 61.08,23.46 C 55.19,9.36 43.81,0.6 31.37,0.6 19.36,0.6 8.16,8.93 2.16,22.34 a 1.31,1.31 0 0 0 0.66,1.73 1.32,1.32 0 0 0 1.74,-0.66 C 10.13,11 20.4,3.23 31.37,3.23 c 11.35,0 21.81,8.14 27.28,21.25 a 1.33,1.33 0 0 0 1.72,0.7 1.31,1.31 0 0 0 0.71,-1.72 z"
       inkscape:connector-curvature="0"
       style="fill:#ffffff" />
    <path
       id="path881"
       d="M 57.64,44.06 C 57.64,26 47.48,11 34,9.21 h -0.17 a 1.32,1.32 0 0 0 -1.3,1.14 1.31,1.31 0 0 0 1.13,1.47 C 45.63,13.39 55,27.56 55,44.06 c 0,3.76 -0.14,7 -0.41,9.81 a 34.71,34.71 0 0 0 2.9,-3.45 c 0.11,-1.9 0.15,-3.92 0.15,-6.36 z"
       inkscape:connector-curvature="0"
       style="fill:#ffffff" />
    <path
       id="path883"
       d="m 0.49,28.86 c -0.17,0.51 -0.33,1 -0.49,1.53 a 38.18,38.18 0 0 0 1,7 49.7,49.7 0 0 1 2,-7.69 1.31,1.31 0 0 0 -1.82,-1.6 1.3,1.3 0 0 0 -0.69,0.76 z"
       inkscape:connector-curvature="0"
       style="fill:#ffffff" />
    <path
       id="path885"
       d="m 7.74,44.06 a 42.24,42.24 0 0 1 2.78,-15.26 1.318484,1.318484 0 1 0 -2.44,-1 44.88,44.88 0 0 0 -3,16.21 v 3.39 a 35.6,35.6 0 0 0 2.65,3.88 c 0,-1.79 0,-3.65 0,-5.82 z"
       inkscape:connector-curvature="0"
       style="fill:#ffffff" />
  </g>
  <g
     aria-label="PassPhrase"
     style="font-style:normal;font-weight:normal;font-size:42.66666794px;line-height:1.25;font-family:sans-serif;letter-spacing:0px;word-spacing:0px;fill:#ffffff;fill-opacity:1;stroke:none"
     id="text1440">
    <path
       d="M 82.496256,16.967501 V 44.31125 H 79.89209 V 14.363334 h 18.880208 q 4.036462,0 6.901042,2.864584 2.86458,2.864583 2.86458,6.901041 0,4.036458 -2.86458,6.901042 -2.86458,2.864583 -6.901042,2.864583 h -5.859375 v -2.604167 h 5.859375 q 2.968752,0 5.052082,-2.083333 2.10938,-2.109375 2.10938,-5.078125 0,-2.96875 -2.10938,-5.052083 -2.08333,-2.109375 -5.052082,-2.109375 z"
       style="font-style:normal;font-variant:normal;font-weight:normal;font-stretch:normal;font-size:53.33333206px;font-family:Gardenfreude;-inkscape-font-specification:Gardenfreude;fill:#ffffff"
       id="path824" />
    <path
       d="m 139.78792,28.686251 q 0,-4.84375 -3.4375,-8.28125 -3.4375,-3.4375 -8.28125,-3.4375 -4.84375,0 -8.28125,3.4375 -3.4375,3.4375 -3.4375,8.28125 h -2.60417 q 0,-5.9375 4.19271,-10.130209 4.19271,-4.192708 10.13021,-4.192708 5.9375,0 10.13021,4.192708 4.19271,4.192709 4.19271,10.130209 v 22.135416 h -2.60417 z m -23.4375,13.020833 v 9.114583 h -2.60417 v -11.71875 h 15.625 v 2.604167 z"
       style="font-style:normal;font-variant:normal;font-weight:normal;font-stretch:normal;font-size:53.33333206px;font-family:Gardenfreude;-inkscape-font-specification:Gardenfreude;fill:#ffffff"
       id="path826" />
    <path
       d="M 147.60042,50.821667 V 48.2175 h 18.88021 q 2.96875,0 5.05208,-2.083333 2.10937,-2.109375 2.10937,-5.078125 0,-2.96875 -2.10937,-5.052083 -2.08333,-2.109375 -5.05208,-2.109375 h -0.65105 v -2.604167 h 0.65105 q 4.03645,0 6.90104,2.864583 2.86458,2.864584 2.86458,6.901042 0,4.036458 -2.86458,6.901041 -2.86459,2.864584 -6.90104,2.864584 z m 9.76562,-33.854166 q -2.96875,0 -5.07812,2.109375 -2.08334,2.083333 -2.08334,5.052083 0,2.96875 2.08334,5.078125 2.10937,2.083333 5.07812,2.083333 h 0.65104 v 2.604167 h -0.65104 q -4.03646,0 -6.90104,-2.864583 -2.86458,-2.864584 -2.86458,-6.901042 0,-4.036458 2.86458,-6.901041 2.86458,-2.864584 6.90104,-2.864584 h 8.46354 v 2.604167 z"
       style="font-style:normal;font-variant:normal;font-weight:normal;font-stretch:normal;font-size:53.33333206px;font-family:Gardenfreude;-inkscape-font-specification:Gardenfreude;fill:#ffffff"
       id="path828" />
    <path
       d="M 181.45458,50.821667 V 48.2175 h 18.88021 q 2.96875,0 5.05208,-2.083333 2.10938,-2.109375 2.10938,-5.078125 0,-2.96875 -2.10938,-5.052083 -2.08333,-2.109375 -5.05208,-2.109375 h -0.65104 v -2.604167 h 0.65104 q 4.03646,0 6.90104,2.864583 2.86458,2.864584 2.86458,6.901042 0,4.036458 -2.86458,6.901041 -2.86458,2.864584 -6.90104,2.864584 z m 9.76563,-33.854166 q -2.96875,0 -5.07813,2.109375 -2.08333,2.083333 -2.08333,5.052083 0,2.96875 2.08333,5.078125 2.10938,2.083333 5.07813,2.083333 h 0.65104 v 2.604167 h -0.65104 q -4.03646,0 -6.90104,-2.864583 -2.86459,-2.864584 -2.86459,-6.901042 0,-4.036458 2.86459,-6.901041 2.86458,-2.864584 6.90104,-2.864584 h 8.46354 v 2.604167 z"
       style="font-style:normal;font-variant:normal;font-weight:normal;font-stretch:normal;font-size:53.33333206px;font-family:Gardenfreude;-inkscape-font-specification:Gardenfreude;fill:#ffffff"
       id="path830" />
    <path
       d="M 217.91291,16.967501 V 44.31125 h -2.60416 V 14.363334 h 18.8802 q 4.03646,0 6.90105,2.864584 2.86458,2.864583 2.86458,6.901041 0,4.036458 -2.86458,6.901042 -2.86459,2.864583 -6.90105,2.864583 h -5.85937 v -2.604167 h 5.85937 q 2.96875,0 5.05209,-2.083333 2.10937,-2.109375 2.10937,-5.078125 0,-2.96875 -2.10937,-5.052083 -2.08334,-2.109375 -5.05209,-2.109375 z"
       style="font-style:normal;font-variant:normal;font-weight:normal;font-stretch:normal;font-size:53.33333206px;font-family:Gardenfreude;-inkscape-font-specification:Gardenfreude;fill:#ffffff"
       id="path832" />
    <path
       d="m 249.1629,14.363334 h 2.60417 v 16.927083 h 26.04167 v 19.53125 h -2.60417 V 33.894584 H 249.1629 Z m 28.64584,0 v 11.71875 h -2.60417 v -11.71875 z"
       style="font-style:normal;font-variant:normal;font-weight:normal;font-stretch:normal;font-size:53.33333206px;font-family:Gardenfreude;-inkscape-font-specification:Gardenfreude;fill:#ffffff"
       id="path834" />
    <path
       d="m 285.62124,16.967501 v 16.927083 h -2.60417 v -19.53125 h 18.88021 q 4.03646,0 6.90104,2.864584 2.86459,2.864583 2.86459,6.901041 0,4.036458 -2.86459,6.901042 -2.86458,2.864583 -6.90104,2.864583 h -2.73437 l 13.02083,16.927083 h -3.125 L 296.03791,33.894584 v -2.604167 h 5.85937 q 2.96875,0 5.05209,-2.083333 2.10937,-2.109375 2.10937,-5.078125 0,-2.96875 -2.10937,-5.052083 -2.08334,-2.109375 -5.05209,-2.109375 z"
       style="font-style:normal;font-variant:normal;font-weight:normal;font-stretch:normal;font-size:53.33333206px;font-family:Gardenfreude;-inkscape-font-specification:Gardenfreude;fill:#ffffff"
       id="path836" />
    <path
       d="m 342.91291,28.686251 q 0,-4.84375 -3.4375,-8.28125 -3.4375,-3.4375 -8.28125,-3.4375 -4.84375,0 -8.28125,3.4375 -3.4375,3.4375 -3.4375,8.28125 h -2.60416 q 0,-5.9375 4.1927,-10.130209 4.19271,-4.192708 10.13021,-4.192708 5.9375,0 10.13021,4.192708 4.19271,4.192709 4.19271,10.130209 v 22.135416 h -2.60417 z m -23.4375,13.020833 v 9.114583 h -2.60416 v -11.71875 h 15.625 v 2.604167 z"
       style="font-style:normal;font-variant:normal;font-weight:normal;font-stretch:normal;font-size:53.33333206px;font-family:Gardenfreude;-inkscape-font-specification:Gardenfreude;fill:#ffffff"
       id="path838" />
    <path
       d="M 350.7254,50.821667 V 48.2175 h 18.88021 q 2.96875,0 5.05208,-2.083333 2.10938,-2.109375 2.10938,-5.078125 0,-2.96875 -2.10938,-5.052083 -2.08333,-2.109375 -5.05208,-2.109375 h -0.65104 v -2.604167 h 0.65104 q 4.03646,0 6.90104,2.864583 2.86459,2.864584 2.86459,6.901042 0,4.036458 -2.86459,6.901041 -2.86458,2.864584 -6.90104,2.864584 z m 9.76563,-33.854166 q -2.96875,0 -5.07813,2.109375 -2.08333,2.083333 -2.08333,5.052083 0,2.96875 2.08333,5.078125 2.10938,2.083333 5.07813,2.083333 h 0.65104 v 2.604167 h -0.65104 q -4.03646,0 -6.90104,-2.864583 -2.86459,-2.864584 -2.86459,-6.901042 0,-4.036458 2.86459,-6.901041 2.86458,-2.864584 6.90104,-2.864584 h 8.46354 v 2.604167 z"
       style="font-style:normal;font-variant:normal;font-weight:normal;font-stretch:normal;font-size:53.33333206px;font-family:Gardenfreude;-inkscape-font-specification:Gardenfreude;fill:#ffffff"
       id="path840" />
    <path
       d="m 413.22539,14.363334 v 2.604167 h -20.83333 v -2.604167 z m -15.625,19.53125 v -2.604167 h 15.625 v 2.604167 z M 387.18373,48.2175 h 26.04166 v 2.604167 h -28.64583 v -19.53125 h 2.60417 z"
       style="font-style:normal;font-variant:normal;font-weight:normal;font-stretch:normal;font-size:53.33333206px;font-family:Gardenfreude;-inkscape-font-specification:Gardenfreude;fill:#ffffff"
       id="path842" />
  </g>
</svg>
